<?xml version="1.0" encoding="utf-8"?>
<!-- Generator: Adobe Illustrator 24.1.2, SVG Export Plug-In . SVG Version: 6.00 Build 0)  -->
<svg version="1.1" id="kobyone_logo" xmlns="http://www.w3.org/2000/svg" xmlns:xlink="http://www.w3.org/1999/xlink" x="0px"
	 y="0px" viewBox="0 0 338 299.5" style="enable-background:new 0 0 338 299.5;" xml:space="preserve">
<style type="text/css">
	.st0{fill:#3FA9F5;}
	.st1{fill:#3F84F5;}
</style>
<g id="Body_Body3">
	<path class="st0" d="M194.3,126.8l-22.7-6c-3.8-1-7.9-1-11.7,0l-22.7,6V86.1L86.8,26.3c-3.7-4.1-3.3-10.4,0.8-14.1S98,8.9,101.7,13
		c0.1,0.1,0.1,0.2,0.2,0.3l0,0l44,52.1h39.9l43.8-51.9c3-3.6,8-4.7,12.2-2.7c4.9,2.4,6.9,8.4,4.5,13.3c-0.4,0.7-0.8,1.4-1.3,2
		l-50.7,60.1V126.8z"/>
</g>
<g id="Body_Body1">
	<path class="st0" d="M137.9,28.3c0,15.7,12.7,28.3,28.3,28.3c15.7,0,28.3-12.7,28.3-28.3c0-15.7-12.7-28.3-28.3-28.3l0,0
		C150.6,0,137.9,12.7,137.9,28.3z"/>
</g>
<g id="Body_Body2">
	<path class="st0" d="M262.3,156.1l-89.6-24c-4.2-1.1-8.6-1.1-12.8,0l-89.6,24v-8.5l89.6-24c4.2-1.1,8.6-1.1,12.8,0l89.6,24V156.1z"
		/>
</g>
<g id="Body_Body4">
	<path class="st0" d="M163.3,150.3h6v42.1c-0.1,7.2,5.7,13.1,12.9,13.2c7.2,0.1,13-5.6,13.1-12.8v-52l-23.1-6.2c-3.8-1-7.9-1-11.7,0
		l-23.1,6.2v79.9c-0.1,7.2,5.7,13.1,12.9,13.2c7.2,0.1,13-5.6,13.1-12.8V150.3z"/>
</g>
<path class="st1" d="M0,259.3h3.7l6.9,18.5l2.4,6.9h0.2l2.3-6.9l7-18.5h3.7v39.5h-2.7v-27c0-2.8,0.3-6.7,0.4-9.4h-0.2l-2.2,6.8
	l-7.4,19.1H12l-7.4-19.1l-2.3-6.8H2.2c0.1,2.7,0.4,6.5,0.4,9.4v27H0V259.3z"/>
<path class="st1" d="M56.2,284.3l-13.5-25h2.8l7,13c1.8,3.1,3.3,6.1,5.1,9.3h0.2c1.8-3.2,3.5-6.3,5.2-9.4l6.8-13h2.7l-13.5,25v14.5
	h-2.8V284.3z"/>
<path class="st0" d="M87.4,259.7h9.3l3.8,13.9l1.3,5.4h0.2l1.3-5.4l3.8-13.9h9.3v39.1H109v-12.1c0-4.4,0.8-13.9,1.2-18.2H110
	l-3,10.5l-3,9.4h-4.3l-3.1-9.4l-2.8-10.5h-0.2c0.4,4.2,1.2,13.8,1.2,18.2v12.1h-7.4V259.7z"/>
<path class="st0" d="M130.6,279.1c0-13.1,6.4-20.1,15.7-20.1c9.3,0,15.7,7,15.7,20.1c0,13.4-6.4,20.4-15.7,20.4
	C137,299.5,130.6,292.5,130.6,279.1z M153,279.1c0-8.1-2.6-12.4-6.7-12.4c-4.1,0-6.7,4.3-6.7,12.4c0,8.4,2.6,12.8,6.7,12.8
	C150.4,291.9,153,287.5,153,279.1z"/>
<path class="st0" d="M186.3,267.1h-11.7v-7.4h32.3v7.4h-11.7v31.7h-8.8V267.1z"/>
<path class="st0" d="M221.6,291.4h9.1v-24.3h-9.1v-7.4h27.1v7.4h-9.1v24.3h9.1v7.4h-27.1V291.4z"/>
<path class="st0" d="M263.8,279.1c0-13.1,6.4-20.1,15.7-20.1s15.7,7,15.7,20.1c0,13.4-6.4,20.4-15.7,20.4S263.8,292.5,263.8,279.1z
	 M286.2,279.1c0-8.1-2.6-12.4-6.7-12.4s-6.7,4.3-6.7,12.4c0,8.4,2.6,12.8,6.7,12.8S286.2,287.5,286.2,279.1z"/>
<path class="st0" d="M309.9,259.7h9.1l8.2,19.4l3.3,8.6h0.2c-0.4-4.1-1.2-9.6-1.2-14.2v-13.8h8.4v39.1h-9.1l-8.2-19.5l-3.3-8.5h-0.2
	c0.4,4.3,1.2,9.6,1.2,14.2v13.9h-8.4V259.7z"/>
</svg>
